<svg xmlns="http://www.w3.org/2000/svg" xmlns:svg="http://www.w3.org/2000/svg" id="svg8" width="240" height="278" version="1.1" viewBox="0 0 63.5 73.554"><defs id="defs2"><clipPath id="clipPath842" clipPathUnits="userSpaceOnUse"><path id="path844" d="m 146.07545,230.5674 -64.033916,36.97 -64.03392,-36.97 0,-73.94 64.033921,-36.97001 64.033925,36.97001 z" style="opacity:1;fill:none;fill-opacity:.97979796;stroke:#fff;stroke-width:3.11897802;stroke-miterlimit:4;stroke-dasharray:none;stroke-dashoffset:0;stroke-opacity:1"/></clipPath><clipPath id="clipPath831" clipPathUnits="userSpaceOnUse"><path id="path833" d="m 166.65403,183.65599 -64.03392,36.97 -64.033921,-36.97 0,-73.94 64.033921,-36.970003 64.03392,36.970003 z" style="opacity:1;fill:none;fill-opacity:.97979796;stroke:#a71b1e;stroke-width:4;stroke-miterlimit:4;stroke-dasharray:none;stroke-dashoffset:0;stroke-opacity:1"/></clipPath><clipPath id="clipPath868" clipPathUnits="userSpaceOnUse"><path id="path870" d="m 166.65403,183.65599 -64.03392,36.97 -64.033921,-36.97 0,-73.94 64.033921,-36.970003 64.03392,36.970003 z" style="opacity:1;fill:none;fill-opacity:.97979796;stroke:#a71b1e;stroke-width:4;stroke-miterlimit:4;stroke-dasharray:none;stroke-dashoffset:0;stroke-opacity:1"/></clipPath><clipPath id="clipPath885" clipPathUnits="userSpaceOnUse"><path id="path887" d="m 166.65403,183.65599 -64.03392,36.97 -64.033921,-36.97 0,-73.94 64.033921,-36.970003 64.03392,36.970003 z" style="opacity:1;fill:none;fill-opacity:.97979796;stroke:#a71b1e;stroke-width:4;stroke-miterlimit:4;stroke-dasharray:none;stroke-dashoffset:0;stroke-opacity:1"/></clipPath><linearGradient id="gradientFill-1" x1=".741" x2="590.863" y1="3.666" y2="593.787" gradientTransform="matrix(0.07136903,0,0,0.0471406,-125.75569,131.37328)" gradientUnits="userSpaceOnUse" spreadMethod="pad"><stop id="stop60" offset="0" stop-color="#CBCED0" stop-opacity="1"/><stop id="stop62" offset="1" stop-color="#84838B" stop-opacity="1"/></linearGradient><linearGradient id="gradientFill-2" x1="301.026" x2="703.067" y1="151.401" y2="553.442" gradientTransform="matrix(0.0578191,0,0,0.05818802,-125.75569,131.37328)" gradientUnits="userSpaceOnUse" spreadMethod="pad"><stop id="stop65" offset="0" stop-color="#276DC3" stop-opacity="1"/><stop id="stop67" offset="1" stop-color="#165CAA" stop-opacity="1"/></linearGradient><clipPath id="clipPath858" clipPathUnits="userSpaceOnUse"><rect id="rect860" width="147.601" height="145.764" x="-903.297" y="166.759" rx=".982" ry=".957" style="opacity:1;vector-effect:none;fill:none;fill-opacity:1;stroke:#000;stroke-width:.25656542;stroke-linecap:butt;stroke-linejoin:miter;stroke-miterlimit:4;stroke-dasharray:none;stroke-dashoffset:0;stroke-opacity:1"/></clipPath><clipPath id="clipPath1335" clipPathUnits="userSpaceOnUse"><path id="path1337" d="m -465.95009,262.62054 -64.03392,36.97001 -64.03392,-36.97001 0,-73.94 64.03392,-36.97 64.03392,36.97 z" transform="matrix(0.48303509,0,0,0.48222711,-410.66389,79.057617)" style="opacity:1;fill:none;fill-opacity:1;stroke:#2a7fff;stroke-width:4;stroke-miterlimit:4;stroke-dasharray:none;stroke-dashoffset:0;stroke-opacity:1"/></clipPath><radialGradient id="SVGID_1_" cx="327.796" cy="448.951" r="309.807" gradientTransform="matrix(0.07174215,0,0,0.07174215,-721.6517,85.248709)" gradientUnits="userSpaceOnUse"><stop id="stop1408" offset="0" style="stop-color:#77e8f9"/><stop id="stop1410" offset=".701" style="stop-color:#2972cb"/><stop id="stop1412" offset="1" style="stop-color:#073fb7"/></radialGradient><linearGradient id="SVGID_2_" x1="319.334" x2="320.083" y1="14.727" y2="281.935" gradientTransform="matrix(0.07174215,0,0,0.07174215,-721.6517,85.248709)" gradientUnits="userSpaceOnUse"><stop id="stop1431" offset="0" style="stop-color:#fff;stop-opacity:.83"/><stop id="stop1433" offset="1" style="stop-color:#fff;stop-opacity:0"/></linearGradient><clipPath id="clipPath6968" clipPathUnits="userSpaceOnUse"><path id="path6970" d="m -465.95009,262.62054 -64.03392,36.97001 -64.03392,-36.97001 0,-73.94 64.03392,-36.97 64.03392,36.97 z" transform="matrix(0.48303509,0,0,0.48222711,-376.62074,80.018574)" style="opacity:1;fill:none;fill-opacity:1;stroke:#073fb7;stroke-width:4;stroke-miterlimit:4;stroke-dasharray:none;stroke-dashoffset:0;stroke-opacity:1"/></clipPath></defs><metadata id="metadata5"/><g style="display:inline" id="layer4"><path id="path862" d="m -465.95009,262.62054 -64.03392,36.97001 -64.03392,-36.97001 0,-73.94 64.03392,-36.97 64.03392,36.97 z" transform="matrix(0.48303509,0,0,0.48222711,287.77988,-71.968858)" style="display:inline;opacity:1;fill:#d9c7ad;fill-opacity:1;stroke:none;stroke-width:4;stroke-miterlimit:4;stroke-dasharray:none;stroke-dashoffset:0;stroke-opacity:1"/></g><g style="display:inline" id="layer2"><ellipse style="opacity:1;vector-effect:none;fill:#916f6f;fill-opacity:1;stroke:#433425;stroke-width:.26458332;stroke-linecap:butt;stroke-linejoin:miter;stroke-miterlimit:4;stroke-dasharray:none;stroke-dashoffset:0;stroke-opacity:1" id="ellipse1177" cx="23.472" cy="10.799" rx=".979" ry=".918"/><ellipse id="ellipse1179" cx="40.086" cy="10.799" rx=".979" ry=".918" style="opacity:1;vector-effect:none;fill:#916f6f;fill-opacity:1;stroke:#433425;stroke-width:.26458332;stroke-linecap:butt;stroke-linejoin:miter;stroke-miterlimit:4;stroke-dasharray:none;stroke-dashoffset:0;stroke-opacity:1"/><ellipse style="opacity:1;vector-effect:none;fill:#916f6f;fill-opacity:1;stroke:#433425;stroke-width:.26458332;stroke-linecap:butt;stroke-linejoin:miter;stroke-miterlimit:4;stroke-dasharray:none;stroke-dashoffset:0;stroke-opacity:1" id="ellipse1181" cx="31.779" cy="10.799" rx=".979" ry=".918"/><ellipse id="ellipse1201" cx="31.779" cy="2.538" rx=".979" ry=".918" style="opacity:1;vector-effect:none;fill:#916f6f;fill-opacity:1;stroke:#433425;stroke-width:.26458332;stroke-linecap:butt;stroke-linejoin:miter;stroke-miterlimit:4;stroke-dasharray:none;stroke-dashoffset:0;stroke-opacity:1"/><ellipse id="ellipse1273" cx="15.165" cy="19.06" rx=".979" ry=".918" style="opacity:1;vector-effect:none;fill:#916f6f;fill-opacity:1;stroke:#433425;stroke-width:.26458332;stroke-linecap:butt;stroke-linejoin:miter;stroke-miterlimit:4;stroke-dasharray:none;stroke-dashoffset:0;stroke-opacity:1"/><ellipse style="opacity:1;vector-effect:none;fill:#916f6f;fill-opacity:1;stroke:#433425;stroke-width:.26458332;stroke-linecap:butt;stroke-linejoin:miter;stroke-miterlimit:4;stroke-dasharray:none;stroke-dashoffset:0;stroke-opacity:1" id="ellipse1275" cx="6.859" cy="19.06" rx=".979" ry=".918"/><ellipse id="ellipse1277" cx="23.472" cy="19.06" rx=".979" ry=".918" style="opacity:1;vector-effect:none;fill:#916f6f;fill-opacity:1;stroke:#433425;stroke-width:.26458332;stroke-linecap:butt;stroke-linejoin:miter;stroke-miterlimit:4;stroke-dasharray:none;stroke-dashoffset:0;stroke-opacity:1"/><ellipse style="opacity:1;vector-effect:none;fill:#916f6f;fill-opacity:1;stroke:#433425;stroke-width:.26458332;stroke-linecap:butt;stroke-linejoin:miter;stroke-miterlimit:4;stroke-dasharray:none;stroke-dashoffset:0;stroke-opacity:1" id="ellipse1279" cx="40.086" cy="19.06" rx=".979" ry=".918"/><ellipse id="ellipse1281" cx="31.779" cy="19.06" rx=".979" ry=".918" style="opacity:1;vector-effect:none;fill:#916f6f;fill-opacity:1;stroke:#433425;stroke-width:.26458332;stroke-linecap:butt;stroke-linejoin:miter;stroke-miterlimit:4;stroke-dasharray:none;stroke-dashoffset:0;stroke-opacity:1"/><ellipse style="opacity:1;vector-effect:none;fill:#916f6f;fill-opacity:1;stroke:#433425;stroke-width:.26458332;stroke-linecap:butt;stroke-linejoin:miter;stroke-miterlimit:4;stroke-dasharray:none;stroke-dashoffset:0;stroke-opacity:1" id="ellipse1283" cx="48.393" cy="19.06" rx=".979" ry=".918"/><ellipse style="opacity:1;vector-effect:none;fill:#916f6f;fill-opacity:1;stroke:#433425;stroke-width:.26458332;stroke-linecap:butt;stroke-linejoin:miter;stroke-miterlimit:4;stroke-dasharray:none;stroke-dashoffset:0;stroke-opacity:1" id="ellipse1287" cx="56.699" cy="19.06" rx=".979" ry=".918"/><ellipse style="opacity:1;vector-effect:none;fill:#916f6f;fill-opacity:1;stroke:#433425;stroke-width:.26458332;stroke-linecap:butt;stroke-linejoin:miter;stroke-miterlimit:4;stroke-dasharray:none;stroke-dashoffset:0;stroke-opacity:1" id="ellipse1293" cx="15.165" cy="35.582" rx=".979" ry=".918"/><ellipse id="ellipse1295" cx="6.859" cy="35.582" rx=".979" ry=".918" style="opacity:1;vector-effect:none;fill:#916f6f;fill-opacity:1;stroke:#433425;stroke-width:.26458332;stroke-linecap:butt;stroke-linejoin:miter;stroke-miterlimit:4;stroke-dasharray:none;stroke-dashoffset:0;stroke-opacity:1"/><ellipse style="opacity:1;vector-effect:none;fill:#916f6f;fill-opacity:1;stroke:#433425;stroke-width:.26458332;stroke-linecap:butt;stroke-linejoin:miter;stroke-miterlimit:4;stroke-dasharray:none;stroke-dashoffset:0;stroke-opacity:1" id="ellipse1297" cx="23.472" cy="35.582" rx=".979" ry=".918"/><ellipse id="ellipse1299" cx="40.086" cy="35.582" rx=".979" ry=".918" style="opacity:1;vector-effect:none;fill:#916f6f;fill-opacity:1;stroke:#433425;stroke-width:.26458332;stroke-linecap:butt;stroke-linejoin:miter;stroke-miterlimit:4;stroke-dasharray:none;stroke-dashoffset:0;stroke-opacity:1"/><ellipse id="ellipse1303" cx="48.393" cy="35.582" rx=".979" ry=".918" style="opacity:1;vector-effect:none;fill:#916f6f;fill-opacity:1;stroke:#433425;stroke-width:.26458332;stroke-linecap:butt;stroke-linejoin:miter;stroke-miterlimit:4;stroke-dasharray:none;stroke-dashoffset:0;stroke-opacity:1"/><ellipse id="ellipse1307" cx="56.699" cy="35.582" rx=".979" ry=".918" style="opacity:1;vector-effect:none;fill:#916f6f;fill-opacity:1;stroke:#433425;stroke-width:.26458332;stroke-linecap:butt;stroke-linejoin:miter;stroke-miterlimit:4;stroke-dasharray:none;stroke-dashoffset:0;stroke-opacity:1"/><ellipse id="ellipse1313" cx="15.165" cy="27.321" rx=".979" ry=".918" style="opacity:1;vector-effect:none;fill:#916f6f;fill-opacity:1;stroke:#433425;stroke-width:.26458332;stroke-linecap:butt;stroke-linejoin:miter;stroke-miterlimit:4;stroke-dasharray:none;stroke-dashoffset:0;stroke-opacity:1"/><ellipse style="opacity:1;vector-effect:none;fill:#916f6f;fill-opacity:1;stroke:#433425;stroke-width:.26458332;stroke-linecap:butt;stroke-linejoin:miter;stroke-miterlimit:4;stroke-dasharray:none;stroke-dashoffset:0;stroke-opacity:1" id="ellipse1315" cx="6.859" cy="27.321" rx=".979" ry=".918"/><ellipse id="ellipse1317" cx="23.472" cy="27.321" rx=".979" ry=".918" style="opacity:1;vector-effect:none;fill:#916f6f;fill-opacity:1;stroke:#433425;stroke-width:.26458332;stroke-linecap:butt;stroke-linejoin:miter;stroke-miterlimit:4;stroke-dasharray:none;stroke-dashoffset:0;stroke-opacity:1"/><ellipse style="opacity:1;vector-effect:none;fill:#916f6f;fill-opacity:1;stroke:#433425;stroke-width:.26458332;stroke-linecap:butt;stroke-linejoin:miter;stroke-miterlimit:4;stroke-dasharray:none;stroke-dashoffset:0;stroke-opacity:1" id="ellipse1319" cx="40.086" cy="27.321" rx=".979" ry=".918"/><ellipse id="ellipse1321" cx="31.779" cy="27.321" rx=".979" ry=".918" style="opacity:1;vector-effect:none;fill:#916f6f;fill-opacity:1;stroke:#433425;stroke-width:.26458332;stroke-linecap:butt;stroke-linejoin:miter;stroke-miterlimit:4;stroke-dasharray:none;stroke-dashoffset:0;stroke-opacity:1"/><ellipse style="opacity:1;vector-effect:none;fill:#916f6f;fill-opacity:1;stroke:#433425;stroke-width:.26458332;stroke-linecap:butt;stroke-linejoin:miter;stroke-miterlimit:4;stroke-dasharray:none;stroke-dashoffset:0;stroke-opacity:1" id="ellipse1327" cx="56.699" cy="27.321" rx=".979" ry=".918"/><ellipse id="ellipse8053" cx="23.472" cy="59.691" rx=".979" ry=".918" style="opacity:1;vector-effect:none;fill:#916f6f;fill-opacity:1;stroke:#433425;stroke-width:.26458332;stroke-linecap:butt;stroke-linejoin:miter;stroke-miterlimit:4;stroke-dasharray:none;stroke-dashoffset:0;stroke-opacity:1"/><ellipse style="opacity:1;vector-effect:none;fill:#916f6f;fill-opacity:1;stroke:#433425;stroke-width:.26458332;stroke-linecap:butt;stroke-linejoin:miter;stroke-miterlimit:4;stroke-dasharray:none;stroke-dashoffset:0;stroke-opacity:1" id="ellipse8055" cx="40.086" cy="59.691" rx=".979" ry=".918"/><ellipse id="ellipse8057" cx="31.779" cy="59.691" rx=".979" ry=".918" style="opacity:1;vector-effect:none;fill:#916f6f;fill-opacity:1;stroke:#433425;stroke-width:.26458332;stroke-linecap:butt;stroke-linejoin:miter;stroke-miterlimit:4;stroke-dasharray:none;stroke-dashoffset:0;stroke-opacity:1"/><ellipse id="ellipse8061" cx="15.165" cy="43.965" rx=".979" ry=".918" style="opacity:1;vector-effect:none;fill:#916f6f;fill-opacity:1;stroke:#433425;stroke-width:.26458332;stroke-linecap:butt;stroke-linejoin:miter;stroke-miterlimit:4;stroke-dasharray:none;stroke-dashoffset:0;stroke-opacity:1"/><ellipse style="opacity:1;vector-effect:none;fill:#916f6f;fill-opacity:1;stroke:#433425;stroke-width:.26458332;stroke-linecap:butt;stroke-linejoin:miter;stroke-miterlimit:4;stroke-dasharray:none;stroke-dashoffset:0;stroke-opacity:1" id="ellipse8063" cx="6.859" cy="43.965" rx=".979" ry=".918"/><ellipse id="ellipse8065" cx="23.472" cy="43.965" rx=".979" ry=".918" style="opacity:1;vector-effect:none;fill:#916f6f;fill-opacity:1;stroke:#433425;stroke-width:.26458332;stroke-linecap:butt;stroke-linejoin:miter;stroke-miterlimit:4;stroke-dasharray:none;stroke-dashoffset:0;stroke-opacity:1"/><ellipse style="opacity:1;vector-effect:none;fill:#916f6f;fill-opacity:1;stroke:#433425;stroke-width:.26458332;stroke-linecap:butt;stroke-linejoin:miter;stroke-miterlimit:4;stroke-dasharray:none;stroke-dashoffset:0;stroke-opacity:1" id="ellipse8067" cx="40.086" cy="43.965" rx=".979" ry=".918"/><ellipse id="ellipse8069" cx="31.779" cy="43.965" rx=".979" ry=".918" style="opacity:1;vector-effect:none;fill:#916f6f;fill-opacity:1;stroke:#433425;stroke-width:.26458332;stroke-linecap:butt;stroke-linejoin:miter;stroke-miterlimit:4;stroke-dasharray:none;stroke-dashoffset:0;stroke-opacity:1"/><ellipse style="opacity:1;vector-effect:none;fill:#916f6f;fill-opacity:1;stroke:#433425;stroke-width:.26458332;stroke-linecap:butt;stroke-linejoin:miter;stroke-miterlimit:4;stroke-dasharray:none;stroke-dashoffset:0;stroke-opacity:1" id="ellipse8071" cx="48.393" cy="43.965" rx=".979" ry=".918"/><ellipse style="opacity:1;vector-effect:none;fill:#916f6f;fill-opacity:1;stroke:#433425;stroke-width:.26458332;stroke-linecap:butt;stroke-linejoin:miter;stroke-miterlimit:4;stroke-dasharray:none;stroke-dashoffset:0;stroke-opacity:1" id="ellipse8073" cx="56.699" cy="43.965" rx=".979" ry=".918"/><ellipse style="opacity:1;vector-effect:none;fill:#916f6f;fill-opacity:1;stroke:#433425;stroke-width:.26458332;stroke-linecap:butt;stroke-linejoin:miter;stroke-miterlimit:4;stroke-dasharray:none;stroke-dashoffset:0;stroke-opacity:1" id="ellipse8075" cx="15.165" cy="59.63" rx=".979" ry=".918"/><ellipse id="ellipse8077" cx="48.393" cy="59.63" rx=".979" ry=".918" style="opacity:1;vector-effect:none;fill:#916f6f;fill-opacity:1;stroke:#433425;stroke-width:.26458332;stroke-linecap:butt;stroke-linejoin:miter;stroke-miterlimit:4;stroke-dasharray:none;stroke-dashoffset:0;stroke-opacity:1"/><ellipse style="opacity:1;vector-effect:none;fill:#916f6f;fill-opacity:1;stroke:#433425;stroke-width:.26458332;stroke-linecap:butt;stroke-linejoin:miter;stroke-miterlimit:4;stroke-dasharray:none;stroke-dashoffset:0;stroke-opacity:1" id="ellipse8079" cx="31.779" cy="67.035" rx=".979" ry=".918"/></g><g style="display:inline;opacity:1" id="layer3"><path style="display:inline;opacity:1;fill:none;fill-opacity:1;stroke:#073fb7;stroke-width:4;stroke-miterlimit:4;stroke-dasharray:none;stroke-dashoffset:0;stroke-opacity:1" id="path7233" d="m -465.95009,262.62054 -64.03392,36.97001 -64.03392,-36.97001 0,-73.94 64.03392,-36.97 64.03392,36.97 z" transform="matrix(0.48303509,0,0,0.48222711,287.77988,-71.968858)"/></g><g style="display:inline" id="layer1" transform="translate(595.86565,-149.38123)"><flowRoot style="font-style:normal;font-variant:normal;font-weight:400;font-stretch:normal;font-size:64px;line-height:1.25;font-family:'Segoe UI';-inkscape-font-specification:'Segoe UI';letter-spacing:0;word-spacing:0;fill:#000;fill-opacity:1;stroke:none" id="flowRoot835" xml:space="preserve"><flowRegion style="font-style:normal;font-variant:normal;font-weight:400;font-stretch:normal;font-size:64px;font-family:'Segoe UI';-inkscape-font-specification:'Segoe UI'" id="flowRegion837"><rect style="font-style:normal;font-variant:normal;font-weight:400;font-stretch:normal;font-size:64px;font-family:'Segoe UI';-inkscape-font-specification:'Segoe UI'" id="rect839" width="366.323" height="73.265" x="204.094" y="643.683"/></flowRegion><flowPara id="flowPara841"/></flowRoot><path style="fill:gray;stroke:#000;stroke-width:.26458332;stroke-miterlimit:4;stroke-dasharray:none" id="path2622" d="m -575.07261,166.20012 h -0.90623 c -0.25028,0 -0.45313,0.25762 -0.45313,0.5755 v 0.57527 h -1.1573 c -0.31396,-0.68512 -0.89181,-1.15103 -1.56098,-1.15103 h -1.81206 c -2.50204,0 -4.53054,2.57645 -4.53074,5.7546 l 2.71828,-1.15103 0.37542,0.47684 c 0.33979,0.43157 0.80073,0.67419 1.28147,0.67393 h 1.96784 c 0.66916,0 1.247,-0.46589 1.56097,-1.15103 h 1.1573 v 0.57527 c 0,0.31789 0.20284,0.57551 0.45314,0.57551 h 0.90622 c 0.25029,0 0.4531,-0.25762 0.4531,-0.57551 v -4.60357 c -2e-4,-0.31713 -0.20302,-0.57475 -0.45328,-0.57478 z m -6.04527,6.9051 c -0.14816,0 -0.29294,-0.0242 -0.4365,-0.0534 l -0.33898,12.5445 c -0.0339,1.25757 0.75946,2.30025 1.74999,2.30051 0.99052,2.8e-4 1.78401,-1.04268 1.74998,-2.30051 l -0.33917,-12.54272 c -0.13757,0.0266 -0.27572,0.0517 -0.41748,0.0517 z"/><path style="fill:gray;stroke:#000;stroke-width:.26458332;stroke-miterlimit:4;stroke-dasharray:none" id="path6913" d="m -566.63863,187.92125 c 0.28017,0.16879 0.63716,-0.036 0.63716,-0.3632 v -3.69717 l 1.96865,-1.40633 1.96867,1.40633 v 3.69717 c 0,0.32915 0.35972,0.53026 0.64188,0.36046 1.46972,-0.886 2.45218,-2.49743 2.45244,-4.33831 0,-1.97089 -1.15724,-3.67056 -2.81291,-4.50586 v -10.60972 c 0,-1.2425 -1.00732,-2.24982 -2.24982,-2.24982 -1.24251,0 -2.24983,1.00732 -2.24983,2.24982 v 10.60077 c -1.66138,0.83058 -2.8129,2.53049 -2.8129,4.51433 0,1.8431 0.98496,3.45602 2.45666,4.34153 z m 2.00943,-20.05277 c 0.3294,-0.3294 0.86388,-0.3294 1.19327,0 0.32965,0.32964 0.3294,0.86388 0,1.19328 -0.32939,0.32939 -0.86363,0.32963 -1.19327,0 -0.32939,-0.3294 -0.32939,-0.86389 0,-1.19328 z"/><path style="fill:gray;stroke:#000;stroke-width:.26458332;stroke-miterlimit:4;stroke-dasharray:none" id="path6939" d="m -548.54498,187.94833 -0.56252,-5.49806 1.09094,-1.52326 v -4.07593 c 0.19407,0.0623 0.39254,0.10334 0.59662,0.1031 0.20391,0 0.40255,-0.0408 0.59662,-0.1031 v 4.07593 l 1.09094,1.52326 -0.56252,5.49806 z m -0.72794,-14.69234 v -5.74744 c 0,-0.71425 0.41486,-1.29351 0.92658,-1.29375 h 1.8528 c 0.51189,0 0.92658,0.57901 0.92658,1.29375 v 5.74744 c 0,1.429 -0.82955,2.58728 -1.85298,2.58728 -1.02344,0 -1.85298,-1.15828 -1.85298,-2.58728 z"/></g><g id="layer5"><g id="text926" aria-label="rstudioapi" transform="translate(595.86565,-149.38123)" style="font-style:normal;font-variant:normal;font-weight:400;font-stretch:normal;font-size:6.23694277px;line-height:1.25;font-family:'Segoe UI';-inkscape-font-specification:'Segoe UI';letter-spacing:0;word-spacing:0;display:inline;fill:#073fb7;fill-opacity:1;stroke:none;stroke-width:.33412194"><path id="path901" d="m -585.38051,200.41546 q -0.29456,-0.1602 -0.6873,-0.1602 -0.53227,0 -0.83199,0.39274 -0.29972,0.38757 -0.29972,1.05937 v 2.52697 h -1.63298 v -5.29166 h 1.63298 v 0.98185 h 0.0207 q 0.38757,-1.07487 1.39526,-1.07487 0.25838,0 0.40308,0.062 z" style="font-style:normal;font-variant:normal;font-weight:700;font-stretch:normal;font-size:10.58333302px;font-family:'Segoe UI';-inkscape-font-specification:'Segoe UI Bold';text-align:center;text-anchor:middle;fill:#073fb7;fill-opacity:1;stroke-width:.33412194"/><path id="path903" d="m -584.89992,204.09482 v -1.32292 q 0.40307,0.24288 0.80098,0.36174 0.40308,0.11885 0.75965,0.11885 0.43408,0 0.68213,-0.11885 0.25321,-0.11886 0.25321,-0.36174 0,-0.15503 -0.11369,-0.25838 -0.11369,-0.10335 -0.29455,-0.18087 -0.1757,-0.0775 -0.38758,-0.13952 -0.21187,-0.062 -0.40824,-0.13953 -0.31523,-0.11886 -0.55811,-0.25322 -0.23771,-0.13952 -0.40307,-0.32039 -0.1602,-0.18087 -0.24805,-0.41858 -0.0827,-0.23771 -0.0827,-0.56327 0,-0.44442 0.1912,-0.76481 0.19637,-0.3204 0.51677,-0.52193 0.32556,-0.20671 0.73897,-0.29973 0.41858,-0.0982 0.86816,-0.0982 0.3514,0 0.71314,0.0568 0.36173,0.0517 0.71313,0.15503 v 1.26091 q -0.31006,-0.18087 -0.66662,-0.26872 -0.3514,-0.093 -0.69247,-0.093 -0.1602,0 -0.30489,0.031 -0.13953,0.0258 -0.24805,0.0827 -0.10852,0.0517 -0.17053,0.13952 -0.062,0.0827 -0.062,0.19121 0,0.14469 0.093,0.24804 0.093,0.10336 0.24288,0.18087 0.14986,0.0724 0.33073,0.13436 0.18603,0.0568 0.3669,0.11886 0.32556,0.11368 0.58911,0.24804 0.26355,0.13436 0.44958,0.31523 0.19121,0.18087 0.28939,0.42375 0.10336,0.24288 0.10336,0.57877 0,0.47026 -0.20671,0.80615 -0.20154,0.33073 -0.5426,0.54261 -0.3359,0.2067 -0.78032,0.29972 -0.43925,0.0982 -0.91467,0.0982 -0.87333,0 -1.61747,-0.26872 z" style="font-style:normal;font-variant:normal;font-weight:700;font-stretch:normal;font-size:10.58333302px;font-family:'Segoe UI';-inkscape-font-specification:'Segoe UI Bold';text-align:center;text-anchor:middle;fill:#073fb7;fill-opacity:1;stroke-width:.33412194"/><path id="path905" d="m -576.70404,204.17233 q -0.36173,0.19121 -1.09037,0.19121 -1.726,0 -1.726,-1.79318 v -2.42362 h -0.85782 v -1.20406 h 0.85782 v -1.14205 l 1.62781,-0.46509 v 1.60714 h 1.18856 v 1.20406 h -1.18856 v 2.1394 q 0,0.82683 0.65629,0.82683 0.25839,0 0.53227,-0.14987 z" style="font-style:normal;font-variant:normal;font-weight:700;font-stretch:normal;font-size:10.58333302px;font-family:'Segoe UI';-inkscape-font-specification:'Segoe UI Bold';text-align:center;text-anchor:middle;fill:#073fb7;fill-opacity:1;stroke-width:.33412194"/><path id="path907" d="m -570.76125,204.23434 h -1.62781 v -0.80615 h -0.0258 q -0.60461,0.93535 -1.61747,0.93535 -1.83968,0 -1.83968,-2.22726 v -3.1936 h 1.62781 v 3.04891 q 0,1.12138 0.88883,1.12138 0.43925,0 0.7028,-0.3049 0.26355,-0.31005 0.26355,-0.83715 v -3.02824 h 1.62781 z" style="font-style:normal;font-variant:normal;font-weight:700;font-stretch:normal;font-size:10.58333302px;font-family:'Segoe UI';-inkscape-font-specification:'Segoe UI Bold';text-align:center;text-anchor:middle;fill:#073fb7;fill-opacity:1;stroke-width:.33412194"/><path id="path909" d="m -564.20351,204.23434 h -1.63298 v -0.72863 h -0.0207 q -0.5581,0.85783 -1.63814,0.85783 -0.99219,0 -1.5968,-0.69764 -0.60462,-0.7028 -0.60462,-1.95853 0,-1.31258 0.66663,-2.10323 0.66663,-0.79065 1.74666,-0.79065 1.0232,0 1.42627,0.7338 h 0.0207 v -3.14709 h 1.63298 z m -1.60197,-2.57348 v -0.39791 q 0,-0.51676 -0.29972,-0.85783 -0.29973,-0.34106 -0.78032,-0.34106 -0.5426,0 -0.84749,0.42891 -0.30489,0.42375 -0.30489,1.16789 0,0.69763 0.29455,1.07487 0.29456,0.37724 0.81649,0.37724 0.49609,0 0.80615,-0.39791 0.31523,-0.39791 0.31523,-1.0542 z" style="font-style:normal;font-variant:normal;font-weight:700;font-stretch:normal;font-size:10.58333302px;font-family:'Segoe UI';-inkscape-font-specification:'Segoe UI Bold';text-align:center;text-anchor:middle;fill:#073fb7;fill-opacity:1;stroke-width:.33412194"/><path id="path911" d="m -562.0021,198.10552 q -0.41341,0 -0.67696,-0.24288 -0.26355,-0.24805 -0.26355,-0.60461 0,-0.36691 0.26355,-0.59945 0.26355,-0.23254 0.67696,-0.23254 0.41858,0 0.67697,0.23254 0.26355,0.23254 0.26355,0.59945 0,0.37207 -0.26355,0.60978 -0.25839,0.23771 -0.67697,0.23771 z m 0.80616,6.12882 h -1.63298 v -5.29166 h 1.63298 z" style="font-style:normal;font-variant:normal;font-weight:700;font-stretch:normal;font-size:10.58333302px;font-family:'Segoe UI';-inkscape-font-specification:'Segoe UI Bold';text-align:center;text-anchor:middle;fill:#073fb7;fill-opacity:1;stroke-width:.33412194"/><path id="path913" d="m -557.2892,204.36354 q -1.32292,0 -2.08256,-0.73898 -0.75448,-0.74414 -0.75448,-2.01538 0,-1.31258 0.78548,-2.05155 0.78548,-0.74414 2.1239,-0.74414 1.31775,0 2.06706,0.74414 0.74931,0.73897 0.74931,1.95853 0,1.31775 -0.77515,2.08256 -0.76998,0.76482 -2.11356,0.76482 z m 0.0413,-4.29948 q -0.57878,0 -0.89917,0.39791 -0.3204,0.3979 -0.3204,1.12654 0,1.52446 1.2299,1.52446 1.17306,0 1.17306,-1.5658 0,-1.48311 -1.18339,-1.48311 z" style="font-style:normal;font-variant:normal;font-weight:700;font-stretch:normal;font-size:10.58333302px;font-family:'Segoe UI';-inkscape-font-specification:'Segoe UI Bold';text-align:center;text-anchor:middle;fill:#073fb7;fill-opacity:1;stroke-width:.33412194"/><path id="path915" d="m -549.04165,204.23434 h -1.54512 v -0.75964 h -0.0207 q -0.53227,0.88884 -1.57613,0.88884 -0.76998,0 -1.2144,-0.43409 -0.43925,-0.43925 -0.43925,-1.16788 0,-1.53996 1.82418,-1.77767 l 1.4366,-0.19121 q 0,-0.86816 -0.94051,-0.86816 -0.94568,0 -1.79834,0.56327 v -1.2299 q 0.34107,-0.1757 0.93018,-0.31005 0.59428,-0.13436 1.08004,-0.13436 2.26342,0 2.26342,2.25826 z m -1.53479,-2.14974 v -0.35656 l -0.96118,0.12402 q -0.79582,0.10335 -0.79582,0.7183 0,0.27906 0.19121,0.45992 0.19637,0.1757 0.5271,0.1757 0.45992,0 0.74931,-0.31522 0.28938,-0.3204 0.28938,-0.80616 z" style="font-style:normal;font-variant:normal;font-weight:700;font-stretch:normal;font-size:10.58333302px;font-family:'Segoe UI';-inkscape-font-specification:'Segoe UI Bold';text-align:center;text-anchor:middle;fill:#073fb7;fill-opacity:1;stroke-width:.33412194"/><path id="path917" d="m -546.08575,203.61939 h -0.0207 v 3.04891 h -1.63297 v -7.72562 h 1.63297 v 0.79582 h 0.0207 q 0.60461,-0.92501 1.70015,-0.92501 1.02836,0 1.58647,0.70796 0.56327,0.7028 0.56327,1.9172 0,1.32292 -0.65629,2.1239 -0.65112,0.80099 -1.73633,0.80099 -0.95601,0 -1.45727,-0.74415 z m -0.0465,-2.17041 v 0.42375 q 0,0.54777 0.28938,0.894 0.28939,0.34624 0.75965,0.34624 0.5581,0 0.86299,-0.42892 0.31006,-0.43408 0.31006,-1.22473 0,-1.39526 -1.0852,-1.39526 -0.50126,0 -0.82166,0.3824 -0.31522,0.37724 -0.31522,1.00252 z" style="font-style:normal;font-variant:normal;font-weight:700;font-stretch:normal;font-size:10.58333302px;font-family:'Segoe UI';-inkscape-font-specification:'Segoe UI Bold';text-align:center;text-anchor:middle;fill:#073fb7;fill-opacity:1;stroke-width:.33412194"/><path id="path919" d="m -540.33934,198.10552 q -0.41341,0 -0.67696,-0.24288 -0.26355,-0.24805 -0.26355,-0.60461 0,-0.36691 0.26355,-0.59945 0.26355,-0.23254 0.67696,-0.23254 0.41858,0 0.67697,0.23254 0.26355,0.23254 0.26355,0.59945 0,0.37207 -0.26355,0.60978 -0.25839,0.23771 -0.67697,0.23771 z m 0.80616,6.12882 h -1.63298 v -5.29166 h 1.63298 z" style="font-style:normal;font-variant:normal;font-weight:700;font-stretch:normal;font-size:10.58333302px;font-family:'Segoe UI';-inkscape-font-specification:'Segoe UI Bold';text-align:center;text-anchor:middle;fill:#073fb7;fill-opacity:1;stroke-width:.33412194"/></g></g><style id="style1402" type="text/css"/></svg>